<svg width="325" height="178" viewBox="0 0 325 178" fill="none" xmlns="http://www.w3.org/2000/svg">
<g clip-path="url(#clip0_316_1390)">
<path d="M260.222 130.686C259.455 125.54 259.252 120.326 259.617 115.136L260.222 106.546C256.893 113.146 257.645 121.833 260.222 130.686Z" fill="#D8D8D8"/>
<path d="M262.817 132.123C262.448 129.052 262.351 125.955 262.526 122.867L262.817 117.754C261.215 121.682 261.577 126.853 262.817 132.123Z" fill="#CACACA"/>
<path d="M274.357 138.446V141.32C274.355 141.548 274.264 141.766 274.102 141.928C273.94 142.089 273.72 142.18 273.491 142.182H272.049C272.011 142.182 271.974 142.189 271.939 142.203C271.903 142.218 271.872 142.239 271.845 142.266C271.818 142.292 271.797 142.324 271.782 142.359C271.768 142.394 271.76 142.431 271.761 142.469V166.034C271.759 166.262 271.668 166.481 271.506 166.642C271.344 166.804 271.124 166.895 270.895 166.896H253.3C253.071 166.896 252.851 166.805 252.689 166.643C252.527 166.482 252.435 166.262 252.435 166.034V142.469C252.435 142.393 252.404 142.32 252.35 142.266C252.296 142.212 252.223 142.182 252.147 142.182H250.416C250.187 142.181 249.967 142.091 249.804 141.929C249.642 141.767 249.551 141.548 249.551 141.32V138.446C249.551 138.333 249.573 138.22 249.616 138.116C249.66 138.011 249.724 137.916 249.804 137.836C249.884 137.756 249.98 137.692 250.085 137.649C250.19 137.606 250.302 137.583 250.416 137.584H273.491C273.721 137.584 273.94 137.675 274.102 137.837C274.265 137.998 274.356 138.217 274.357 138.446Z" fill="#EEEEEE"/>
<path d="M271.786 142.785H252.461V143.647H271.786V142.785Z" fill="#E6E6E6"/>
<path d="M271.76 155.471C265.294 158.138 258.756 158.167 252.146 155.471V149.398C258.51 147.268 265.397 147.268 271.76 149.398V155.471Z" fill="#60926E"/>
<path d="M163.439 62.6046C177.875 62.6046 189.578 50.945 189.578 36.5621C189.578 22.1792 177.875 10.5196 163.439 10.5196C149.003 10.5196 137.3 22.1792 137.3 36.5621C137.3 50.945 149.003 62.6046 163.439 62.6046Z" fill="#FEB8B8"/>
<path d="M187.852 14.0948C183.944 7.77223 177.827 3.11338 170.678 1.01505L167.469 3.34813V0.318687C165.752 0.0568788 164.015 -0.0439772 162.279 0.0174454L159.51 2.51321V0.224794C155.411 0.732292 151.462 2.08047 147.912 4.18432C144.362 6.28817 141.288 9.10205 138.884 12.4485C132.872 21.084 131.857 33.0979 137.77 41.8026C139.393 36.8322 141.364 32.1686 142.987 27.1986C144.263 27.3719 145.556 27.3782 146.834 27.2172L148.809 22.6258L149.36 27.0229C155.482 26.4917 164.562 25.3249 170.365 24.256L169.8 20.8827L173.177 23.6857C174.954 23.278 176.01 22.908 175.923 22.6254C180.239 29.5579 185.521 33.9855 189.837 40.918C191.476 31.1428 193.363 23.0149 187.852 14.0948Z" fill="#2F2E41"/>
<path d="M219.656 103.531C218.757 98.1437 217.83 92.6526 215.317 87.7992C213.665 84.6201 211.043 81.5907 207.509 80.9621C206.812 80.9002 206.128 80.7424 205.475 80.4931C204.44 79.9961 190.522 72.0806 188.31 70.7019C186.411 69.5184 183.413 67.3269 181.901 67.3269C180.38 67.2936 174.548 68.6459 151.787 66.8732C151.787 66.8732 145.534 69.3288 140.695 72.3064C140.622 72.2582 117.07 84.8586 116.186 84.8254C114.51 84.7551 112.953 85.8241 111.992 87.1701C111.032 88.5161 110.581 90.1825 110.109 91.7936C115.253 103.207 119.96 114.635 125.104 126.048C125.345 126.478 125.473 126.962 125.476 127.454C125.373 127.965 125.154 128.446 124.837 128.86C122.314 132.897 122.394 137.976 122.67 142.721C122.945 147.467 123.286 152.479 121.158 156.733C120.579 157.901 119.826 158.97 119.275 160.137C117.986 162.782 117.52 171.242 118.273 174.083L212.64 176.777C210.611 171.22 219.656 103.531 219.656 103.531Z" fill="#326789"/>
<path d="M101.952 126.554C101.764 127.911 101.745 129.286 101.895 130.648L103.248 150.001C103.375 151.825 103.5 153.644 103.672 155.464C103.996 158.995 104.481 162.498 105.083 165.995C105.096 166.492 105.307 166.963 105.669 167.305C106.031 167.647 106.514 167.832 107.012 167.819C112.966 169.075 119.117 169.024 125.194 168.682C134.466 168.167 158.187 167.191 159.637 165.316C161.086 163.44 160.241 160.406 158.352 158.889C156.462 157.372 125.158 153.675 125.158 153.675C125.464 151.26 126.387 148.985 127.262 146.693C128.834 142.626 130.302 138.426 130.331 134.069C130.359 129.713 128.712 125.133 125.13 122.637C122.183 120.588 118.39 120.208 114.799 120.292C112.187 120.367 107.673 119.743 105.287 120.761C103.399 121.589 102.305 124.712 101.952 126.554Z" fill="#FBBEBE"/>
<path d="M109.837 92.141C109.378 92.6192 109.023 93.1858 108.792 93.8058C104.988 102.348 102.74 111.497 102.156 120.825C102.166 121.28 102.061 121.73 101.85 122.133C101.642 122.402 101.41 122.651 101.158 122.879C100.938 123.139 100.772 123.439 100.668 123.763C100.565 124.087 100.526 124.428 100.555 124.767C100.584 125.105 100.68 125.435 100.836 125.737C100.993 126.039 101.208 126.307 101.469 126.527C101.512 126.562 101.556 126.597 101.601 126.63C102.377 125.174 104.236 124.698 105.888 124.572C113.8 123.948 121.528 127.615 129.463 127.339C128.903 125.411 128.098 123.559 127.642 121.609C125.622 112.947 130.659 103.518 127.571 95.1754C126.954 93.506 125.924 91.8648 124.3 91.1333C123.628 90.8631 122.924 90.6776 122.206 90.581C120.201 90.22 116.209 88.6772 114.271 89.2963C113.555 89.5262 113.273 90.1964 112.68 90.6016C111.779 91.175 110.583 91.3859 109.837 92.141Z" fill="#326789"/>
<path d="M219.713 120.761C217.327 119.743 212.813 120.367 210.201 120.292C206.61 120.208 202.817 120.588 199.87 122.637C196.288 125.133 194.641 129.713 194.669 134.069C194.697 138.426 196.166 142.626 197.738 146.693C198.613 148.985 199.536 151.26 199.842 153.675C199.842 153.675 168.538 157.372 166.648 158.889C164.758 160.406 163.914 163.44 165.363 165.316C166.812 167.191 212.034 169.075 217.988 167.819C218.486 167.832 218.969 167.647 219.331 167.305C219.693 166.963 219.904 166.492 219.917 165.995C220.519 162.498 221.004 158.995 221.328 155.464C221.5 153.644 221.625 151.825 221.752 150.001L223.104 130.648C223.255 129.286 223.236 127.911 223.048 126.554C222.695 124.712 221.601 121.589 219.713 120.761Z" fill="#FBBEBE"/>
<path d="M212.32 90.6016C211.727 90.1964 211.444 89.5262 210.729 89.2962C208.79 88.6772 204.799 90.22 202.794 90.581C202.075 90.6776 201.372 90.8631 200.699 91.1333C199.076 91.8648 198.045 93.506 197.428 95.1754C194.341 103.518 199.377 112.947 197.358 121.608C196.901 123.559 196.096 125.411 195.536 127.339C203.471 127.615 211.2 123.948 219.111 124.572C220.763 124.698 222.622 125.174 223.399 126.63C223.444 126.597 223.488 126.562 223.531 126.526C223.791 126.307 224.006 126.039 224.163 125.737C224.32 125.435 224.415 125.105 224.444 124.767C224.473 124.428 224.435 124.087 224.331 123.763C224.228 123.439 224.061 123.139 223.841 122.879C223.589 122.651 223.357 122.402 223.149 122.133C222.939 121.73 222.833 121.28 222.844 120.825C222.259 111.497 220.012 102.348 216.207 93.8058C215.977 93.1857 215.621 92.6192 215.163 92.141C214.416 91.3858 213.221 91.175 212.32 90.6016Z" fill="#326789"/>
<path d="M155.697 168.744C159.594 168.744 162.752 165.597 162.752 161.715C162.752 157.833 159.594 154.686 155.697 154.686C151.801 154.686 148.643 157.833 148.643 161.715C148.643 165.597 151.801 168.744 155.697 168.744Z" fill="#FBBEBE"/>
<path d="M171.319 168.744C175.215 168.744 178.373 165.597 178.373 161.715C178.373 157.833 175.215 154.686 171.319 154.686C167.422 154.686 164.264 157.833 164.264 161.715C164.264 165.597 167.422 168.744 171.319 168.744Z" fill="#FBBEBE"/>
<path d="M214.867 177.553H117.943C116.812 177.552 115.727 177.104 114.926 176.307C114.126 175.509 113.676 174.429 113.675 173.301V114.717C113.676 113.59 114.126 112.509 114.926 111.712C115.727 110.914 116.812 110.466 117.943 110.465H214.867C215.998 110.466 217.083 110.914 217.883 111.712C218.684 112.509 219.134 113.59 219.135 114.717V173.301C219.134 174.429 218.684 175.509 217.883 176.307C217.083 177.104 215.998 177.552 214.867 177.553Z" fill="#3F3D56"/>
<path d="M166.17 146.823C167.729 146.823 168.994 145.563 168.994 144.009C168.994 142.455 167.729 141.196 166.17 141.196C164.61 141.196 163.346 142.455 163.346 144.009C163.346 145.563 164.61 146.823 166.17 146.823Z" fill="white"/>
<path d="M325 165.737H0V175.687H19.2234V178H305.784V175.687H325V165.737Z" fill="#326789"/>
<path d="M139.403 46.2687C135.203 46.2687 131.798 42.6009 131.798 38.0764V33.9803C131.798 29.4559 135.203 25.7881 139.403 25.7881L139.403 46.2687Z" fill="#326789"/>
<path d="M187.941 25.7881C192.141 25.7881 195.546 29.4559 195.546 33.9803V38.0764C195.546 42.6009 192.141 46.2686 187.941 46.2686V25.7881Z" fill="#326789"/>
<path d="M191.926 34.624H190.72C190.72 18.1396 178.27 4.72856 162.968 4.72856C147.666 4.72856 135.216 18.1396 135.216 34.624H134.01C134.01 17.4229 147 3.42877 162.968 3.42877C178.936 3.42878 191.926 17.4229 191.926 34.624Z" fill="#326789"/>
</g>
<defs>
<clipPath id="clip0_316_1390">
<rect width="325" height="178" fill="white"/>
</clipPath>
</defs>
</svg>
